<svg xmlns="http://www.w3.org/2000/svg" fill="none" viewBox="0 0 128 128"><rect width="128" height="128" fill="#6366f1" rx="24"/><g fill="#fff"><circle cx="64" cy="48" r="32" fill="none" stroke="#fff" stroke-width="4"/><path fill="none" stroke="#fff" stroke-width="4" d="M64 16 L64 32 M48 64 L64 96 M80 64 M96 64"/><path fill="none" stroke="#fff" stroke-width="4" d="M64 32 L32 64 L64 96 L96 64 L64 112 L32 64 L64 32"/><path fill="none" stroke="#fff" stroke-width="3" d="M64 64 L48 80 L64 112 L80 80 L64 64 L64 80 L48 64 L64 64 L80 48 L64 64 L64 80 L80 80 L64 112 L80 96 L64 96 L64 112 L64 112 L80 96 L64 80"/><line x1="40" x2="88" y1="48" y2="48" stroke="#fff" stroke-linecap="round" stroke-width="3"/><line x1="40" x2="88" y1="64" y2="64" stroke="#fff" stroke-linecap="round" stroke-width="3"/><line x1="40" x2="88" y1="80" y2="80" stroke="#fff" stroke-linecap="round" stroke-width="3"/></g></svg>